# xmcd
#
# Track frame offsets: 
#        150
#        14028
#        28700
#        42760
#        53646
#        67263
#        79672
#        91821
#        105734
#        116486
#        129597
#        141644
#        150269
#        159471
#        167196
#        180231
#        191360
#        204088
#        216792
#        230268
#        242514
#        256316
#        267612
#        280610
#        293882
#        303082
#        314859
#        325376
#        334960
#        347916
#
# Disc length: 4790 seconds
#
# Revision: 0
# Processed by: cddbd v1.5.2PL0 Copyright (c) Steve Scherf et al.
# Submitted via: ExactAudioCopy v0.99pb5
#
DISCID=b412b41e
DTITLE=Patti Page  - Mercury Years Vol. 1. 2 and LP's  FLAC
DYEAR=1900
DGENRE=
TTITLE0=Don't Blame Me
TTITLE1=I Don't Stand A Ghost Of A Chance
TTITLE2=I Only Have Eyes For You
TTITLE3=Ev'ry Day
TTITLE4=Stars Fell On Alabama
TTITLE5=I'll String Along With You
TTITLE6=Stay As Sweet As You Are
TTITLE7=Red Sails In The Sunset
TTITLE8=Nobody's Darlin' But Mine
TTITLE9=East Of The Sun
TTITLE10=I Wished On The Moon
TTITLE11=It's Been So Long
TTITLE12=It All Depends On You
TTITLE13=When You're Smiling
TTITLE14=You're Driving Me Crazy
TTITLE15=My Ideal
TTITLE16=I Still Get A Thrill
TTITLE17=Rockin' Chair
TTITLE18=Just One More Chance
TTITLE19=When Your Lover Has Gone
TTITLE20=Penthouse Serenade
TTITLE21=Paradise
TTITLE22=Sweet And Lovely
TTITLE23=I'll Never Be The Same
TTITLE24=Let There Be Love
TTITLE25=Gone With The Wind
TTITLE26=They All Laughed
TTITLE27=I Guess I'll Have To Change My Plans
TTITLE28=Here I'll Stay
TTITLE29=Lullaby In Rhythm
EXTD=
EXTT0=
EXTT1=
EXTT2=
EXTT3=
EXTT4=
EXTT5=
EXTT6=
EXTT7=
EXTT8=
EXTT9=
EXTT10=
EXTT11=
EXTT12=
EXTT13=
EXTT14=
EXTT15=
EXTT16=
EXTT17=
EXTT18=
EXTT19=
EXTT20=
EXTT21=
EXTT22=
EXTT23=
EXTT24=
EXTT25=
EXTT26=
EXTT27=
EXTT28=
EXTT29=
PLAYORDER=
